<svg width="26" height="62" viewBox="0 0 26 62" fill="none" xmlns="http://www.w3.org/2000/svg">
<path d="M24.666 12.8537C24.666 16.5758 22.1931 19.7156 19.4277 22.6599C19.0423 23.0702 18.6482 23.4799 18.2572 23.8864C17.2965 24.8852 16.3539 25.8651 15.6024 26.7895C14.5606 28.0708 13.6658 29.4948 13.6808 31.0099C13.6957 32.5152 14.5963 33.9318 15.6415 35.212C16.3842 36.1218 17.3101 37.087 18.254 38.071C18.657 38.4911 19.0632 38.9146 19.4599 39.3386C22.212 42.2806 24.666 45.4216 24.666 49.1463C24.666 53.0702 23.3523 56.0102 21.3119 57.971C19.2634 59.9396 16.3999 61 13.166 61C9.93217 61 7.06867 59.9396 5.02012 57.971C2.97969 56.0102 1.66602 53.0702 1.66602 49.1463C1.66602 45.4216 4.12036 42.2807 6.87262 39.3386C7.26912 38.9148 7.67517 38.4915 8.07794 38.0717C9.02214 37.0875 9.94831 36.122 10.6912 35.212C11.7363 33.9317 12.6368 32.515 12.6512 31.0096C12.6657 29.4946 11.7708 28.0707 10.729 26.7895C9.97763 25.8653 9.03534 24.8857 8.07487 23.8871C7.68365 23.4803 7.28943 23.0704 6.90385 22.6599C4.1386 19.7157 1.66602 16.5759 1.66602 12.8537C1.66602 8.92984 2.97969 5.98976 5.02012 4.02896C7.06867 2.06038 9.93217 1 13.166 1C16.3999 1 19.2634 2.06038 21.3119 4.02896C23.3523 5.98976 24.666 8.92984 24.666 12.8537Z" stroke="#B2B5B2" stroke-width="2"/>
<path fill-rule="evenodd" clip-rule="evenodd" d="M14.666 25C14.666 24.1716 13.9944 23.5 13.166 23.5C12.3376 23.5 11.666 24.1716 11.666 25V30L6.66602 30C5.83759 30 5.16602 30.6716 5.16602 31.5C5.16602 32.3284 5.83759 33 6.66602 33H11.666V38C11.666 38.8284 12.3376 39.5 13.166 39.5C13.9944 39.5 14.666 38.8284 14.666 38V33H19.666C20.4944 33 21.166 32.3284 21.166 31.5C21.166 30.6716 20.4944 30 19.666 30L14.666 30V25Z" fill="#E8673C"/>
</svg>
