<svg width="25" height="62" viewBox="0 0 25 62" fill="none" xmlns="http://www.w3.org/2000/svg">
<path d="M24 12.8537C24 16.5758 21.5271 19.7156 18.7616 22.6599C18.3763 23.0702 17.9822 23.4799 17.5912 23.8864C16.6305 24.8852 15.6879 25.8651 14.9364 26.7895C13.8946 28.0708 12.9998 29.4948 13.0148 31.0099C13.0297 32.5152 13.9303 33.9318 14.9755 35.212C15.7182 36.1218 16.6441 37.087 17.588 38.071C17.991 38.4911 18.3972 38.9146 18.7939 39.3386C21.546 42.2806 24 45.4216 24 49.1463C24 53.0702 22.6863 56.0102 20.6459 57.971C18.5973 59.9396 15.7338 61 12.5 61C9.26615 61 6.40265 59.9396 4.35411 57.971C2.31367 56.0102 1 53.0702 1 49.1463C1 45.4216 3.45435 42.2807 6.2066 39.3386C6.6031 38.9148 7.00915 38.4915 7.41192 38.0717C8.35613 37.0875 9.2823 36.122 10.0251 35.212C11.0703 33.9317 11.9708 32.515 11.9852 31.0096C11.9997 29.4946 11.1048 28.0707 10.063 26.7895C9.31161 25.8653 8.36932 24.8857 7.40885 23.8871C7.01764 23.4803 6.62341 23.0704 6.23783 22.6599C3.47258 19.7157 1 16.5759 1 12.8537C1 8.92984 2.31367 5.98976 4.35411 4.02896C6.40265 2.06038 9.26615 1 12.5 1C15.7339 1 18.5973 2.06038 20.6459 4.02896C22.6863 5.98976 24 8.92984 24 12.8537Z" stroke="#B2B5B2" stroke-width="2"/>
<path fill-rule="evenodd" clip-rule="evenodd" d="M12.5 25C13.0523 25 13.5 25.4477 13.5 26V29.0858L15.682 26.9038C16.0725 26.5133 16.7057 26.5133 17.0962 26.9038C17.4867 27.2943 17.4867 27.9275 17.0962 28.318L14.9142 30.5L18 30.5C18.5523 30.5 19 30.9477 19 31.5C19 32.0523 18.5523 32.5 18 32.5L14.9142 32.5L17.0962 34.682C17.4867 35.0725 17.4867 35.7057 17.0962 36.0962C16.7057 36.4867 16.0725 36.4867 15.682 36.0962L13.5 33.9142V37C13.5 37.5523 13.0523 38 12.5 38C11.9477 38 11.5 37.5523 11.5 37V33.9142L9.31802 36.0962C8.9275 36.4867 8.29433 36.4867 7.90381 36.0962C7.51328 35.7057 7.51328 35.0725 7.90381 34.682L10.0858 32.5L7 32.5C6.44771 32.5 6 32.0523 6 31.5C6 30.9477 6.44771 30.5 7 30.5L10.0858 30.5L7.90381 28.318C7.51328 27.9275 7.51328 27.2943 7.90381 26.9038C8.29433 26.5133 8.9275 26.5133 9.31802 26.9038L11.5 29.0858V26C11.5 25.4477 11.9477 25 12.5 25Z" fill="#E8673C"/>
</svg>