<svg width="26" height="62" viewBox="0 0 26 62" fill="none" xmlns="http://www.w3.org/2000/svg">
    <path d="M24.5 12.8537C24.5 16.5758 22.0271 19.7156 19.2616 22.6599C18.8763 23.0702 18.4822 23.4799 18.0912 23.8864C17.1305 24.8852 16.1879 25.8651 15.4364 26.7895C14.3946 28.0708 13.4998 29.4948 13.5148 31.0099C13.5297 32.5152 14.4303 33.9318 15.4755 35.212C16.2182 36.1218 17.1441 37.087 18.088 38.071C18.491 38.4911 18.8972 38.9146 19.2939 39.3386C22.046 42.2806 24.5 45.4216 24.5 49.1463C24.5 53.0702 23.1863 56.0102 21.1459 57.971C19.0973 59.9396 16.2338 61 13 61C9.76615 61 6.90265 59.9396 4.85411 57.971C2.81367 56.0102 1.5 53.0702 1.5 49.1463C1.5 45.4216 3.95435 42.2807 6.7066 39.3386C7.1031 38.9148 7.50915 38.4915 7.91192 38.0717C8.85613 37.0875 9.7823 36.122 10.5251 35.212C11.5703 33.9317 12.4708 32.515 12.4852 31.0096C12.4997 29.4946 11.6048 28.0707 10.563 26.7895C9.81161 25.8653 8.86932 24.8857 7.90885 23.8871C7.51764 23.4803 7.12341 23.0704 6.73783 22.6599C3.97258 19.7157 1.5 16.5759 1.5 12.8537C1.5 8.92984 2.81367 5.98976 4.85411 4.02896C6.90265 2.06038 9.76615 1 13 1C16.2339 1 19.0973 2.06038 21.1459 4.02896C23.1863 5.98976 24.5 8.92984 24.5 12.8537Z" stroke="#B2B5B2" stroke-width="2"/>
    <path d="M24.4986 25.6946C24.4829 25.7207 24.4431 25.7754 24.3514 25.8593C24.1524 26.0412 23.8195 26.255 23.3387 26.4896C22.3828 26.956 21.0734 27.3961 19.6952 27.822C19.3065 27.9422 18.9105 28.0617 18.5186 28.18C17.5597 28.4694 16.6245 28.7517 15.876 29.019C15.3503 29.2067 14.8516 29.409 14.4714 29.6299C14.2837 29.739 14.0726 29.8821 13.8985 30.0692C13.7282 30.2523 13.4999 30.5814 13.5153 31.0341C13.5302 31.4708 13.7643 31.7794 13.9317 31.95C14.1063 32.128 14.3153 32.2665 14.5049 32.3745C14.8878 32.5926 15.3872 32.7937 15.9151 32.9814C16.6549 33.2445 17.5735 33.5226 18.5155 33.8076C18.9194 33.9299 19.3276 34.0534 19.7278 34.1776C21.0999 34.6035 22.4005 35.0433 23.349 35.5092C23.8259 35.7435 24.1555 35.9569 24.3523 36.1381C24.4443 36.223 24.4835 36.278 24.4987 36.3038C24.4867 36.4708 24.3838 36.7288 23.927 37.0631C23.4324 37.4252 22.6469 37.776 21.5701 38.0764C19.4287 38.6738 16.4035 39 13 39C9.59652 39 6.57127 38.6738 4.42994 38.0764C3.35305 37.776 2.5676 37.4252 2.073 37.0631C1.61623 36.7288 1.51327 36.4708 1.50128 36.3038C1.5165 36.278 1.55568 36.223 1.64775 36.1382C1.84457 35.9569 2.17419 35.7435 2.65121 35.5092C3.59974 35.0433 4.90049 34.6035 6.27273 34.1776C6.67279 34.0535 7.0808 33.93 7.48452 33.8078C8.42674 33.5227 9.34561 33.2446 10.0856 32.9814C10.6134 32.7937 11.1127 32.5925 11.4957 32.3744C11.6852 32.2664 11.8943 32.1278 12.0689 31.9497C12.2362 31.7789 12.4703 31.47 12.4847 31.033C12.4996 30.5805 12.2712 30.2518 12.1009 30.0689C11.9269 29.8819 11.7158 29.7389 11.528 29.6298C11.1479 29.409 10.6491 29.2067 10.1234 29.019C9.37497 28.7517 8.44009 28.4696 7.48149 28.1802C7.08933 28.0618 6.6932 27.9423 6.30424 27.822C4.92619 27.3961 3.61691 26.956 2.66109 26.4896C2.18035 26.255 1.84756 26.0412 1.64862 25.8593C1.55683 25.7754 1.51712 25.7207 1.5014 25.6946C1.51395 25.5275 1.61772 25.2701 2.073 24.9369C2.5676 24.5748 3.35305 24.224 4.42994 23.9236C6.57127 23.3262 9.59652 23 13 23C16.4035 23 19.4287 23.3262 21.5701 23.9236C22.6469 24.224 23.4324 24.5748 23.927 24.9369C24.3823 25.2701 24.486 25.5275 24.4986 25.6946ZM24.5078 25.6766C24.5079 25.6766 24.5075 25.6777 24.5065 25.6799C24.5072 25.6777 24.5078 25.6766 24.5078 25.6766ZM1.49218 25.6767C1.49226 25.6767 1.49276 25.6778 1.49348 25.68C1.49247 25.6777 1.49211 25.6767 1.49218 25.6767ZM1.49264 36.321C1.49256 36.321 1.49292 36.3199 1.49393 36.3176C1.49322 36.3199 1.49271 36.321 1.49264 36.321ZM24.5074 36.3209C24.5073 36.3209 24.5068 36.3198 24.5061 36.3176C24.5071 36.3198 24.5074 36.321 24.5074 36.3209Z" stroke="#B2B5B2" stroke-width="2"/>
    <path d="M24.5 20.4634C24.5 21.2722 24.0371 22.1259 23.0788 23.061C22.1305 23.9863 20.8355 24.8569 19.4647 25.7043C19.0826 25.9405 18.6906 26.1771 18.3008 26.4125C17.3379 26.9937 16.388 27.5671 15.6311 28.1077C15.0935 28.4916 14.5906 28.9013 14.2158 29.3368C13.8506 29.7614 13.5032 30.331 13.5149 31.017C13.5264 31.6922 13.8798 32.2512 14.2482 32.6708C14.6272 33.1024 15.1313 33.5099 15.6705 33.8934C16.4183 34.4253 17.3514 34.99 18.2975 35.5628C18.6993 35.806 19.1035 36.0506 19.4968 36.2947C20.8613 37.1417 22.1478 38.0119 23.089 38.9366C24.0394 39.8704 24.5 40.7248 24.5 41.5366C24.5 43.4893 23.3946 45.066 21.3515 46.206C19.285 47.3591 16.3439 48 13 48C9.65612 48 6.71502 47.3591 4.64847 46.206C2.6054 45.066 1.5 43.4893 1.5 41.5366C1.5 40.7249 1.9606 39.8705 2.91113 38.9367C3.85244 38.012 5.13906 37.1418 6.50369 36.2948C6.89684 36.0507 7.3008 35.8062 7.7024 35.5632C8.64883 34.9903 9.58217 34.4254 10.3301 33.8934C10.8693 33.5099 11.3733 33.1023 11.7523 32.6707C12.1207 32.251 12.474 31.6919 12.4851 31.0165C12.4964 30.3306 12.149 29.7612 11.7836 29.3367C11.4088 28.9012 10.9059 28.4916 10.3683 28.1077C9.61149 27.5673 8.66188 26.994 7.69929 26.4129C7.30926 26.1774 6.9171 25.9407 6.53477 25.7043C5.16408 24.8569 3.86919 23.9864 2.92099 23.061C1.96288 22.126 1.5 21.2723 1.5 20.4634C1.5 18.5107 2.6054 16.934 4.64847 15.794C6.71502 14.6409 9.65612 14 13 14C16.3439 14 19.285 14.6409 21.3515 15.794C23.3946 16.934 24.5 18.5107 24.5 20.4634Z" stroke="#B2B5B2" stroke-width="2"/>
</svg>
