<svg width="26" height="62" viewBox="0 0 26 62" fill="none" xmlns="http://www.w3.org/2000/svg">
    <path d="M23.5 17.0001C21.2938 19.6736 5.80846 20.6535 2.5 17.0001C4.85294 20.0245 12.2798 28.289 12.0357 31C10.3333 49.9112 15.2056 53.6829 2.33789 53.6829C2.33789 56.7073 6.7493 61.2439 12.632 61.2439C18.8816 61.2439 21.6915 58.5099 24.3968 53.6829C10.801 53.7223 15.3632 49.9499 13.9316 31C15.0341 27.2195 21.6614 20.0245 23.5 17.0001Z" fill="#E8673C"/>
    <path d="M24.5 12.8537C24.5 16.5758 22.0271 19.7156 19.2616 22.6599C18.8763 23.0702 18.4822 23.4799 18.0912 23.8864C17.1305 24.8852 16.1879 25.8651 15.4364 26.7895C14.3946 28.0708 13.4998 29.4948 13.5148 31.0099C13.5297 32.5152 14.4303 33.9318 15.4755 35.212C16.2182 36.1218 17.1441 37.087 18.088 38.071C18.491 38.4911 18.8972 38.9146 19.2939 39.3386C22.046 42.2806 24.5 45.4216 24.5 49.1463C24.5 53.0702 23.1863 56.0102 21.1459 57.971C19.0973 59.9396 16.2338 61 13 61C9.76615 61 6.90265 59.9396 4.85411 57.971C2.81367 56.0102 1.5 53.0702 1.5 49.1463C1.5 45.4216 3.95435 42.2807 6.7066 39.3386C7.1031 38.9148 7.50915 38.4915 7.91192 38.0717C8.85613 37.0875 9.7823 36.122 10.5251 35.212C11.5703 33.9317 12.4708 32.515 12.4852 31.0096C12.4997 29.4946 11.6048 28.0707 10.563 26.7895C9.81161 25.8653 8.86932 24.8857 7.90885 23.8871C7.51764 23.4803 7.12341 23.0704 6.73783 22.6599C3.97258 19.7157 1.5 16.5759 1.5 12.8537C1.5 8.92984 2.81367 5.98976 4.85411 4.02896C6.90265 2.06038 9.76615 1 13 1C16.2339 1 19.0973 2.06038 21.1459 4.02896C23.1863 5.98976 24.5 8.92984 24.5 12.8537Z" stroke="#B2B5B2" stroke-width="2"/>
</svg>
