<svg width="34" height="34" viewBox="0 0 34 34" fill="none" xmlns="http://www.w3.org/2000/svg">
<path d="M2 17C2 16.4477 1.55228 16 1 16C0.447715 16 0 16.4477 0 17H2ZM10.6248 1.2361C10.1129 1.44332 9.86584 2.02632 10.0731 2.53825C10.2803 3.05018 10.8633 3.2972 11.3752 3.08997L10.6248 1.2361ZM32 17C32 25.2843 25.2843 32 17 32V34C26.3888 34 34 26.3888 34 17H32ZM17 32C8.71573 32 2 25.2843 2 17H0C0 26.3888 7.61116 34 17 34V32ZM17 2C25.2843 2 32 8.71573 32 17H34C34 7.61116 26.3888 0 17 0V2ZM11.3752 3.08997C13.1109 2.38739 15.009 2 17 2V0C14.7474 0 12.5948 0.438641 10.6248 1.2361L11.3752 3.08997Z" fill="#FFFFFF"/>
</svg>
