<svg width="16" height="17" viewBox="0 0 16 17" fill="none" xmlns="http://www.w3.org/2000/svg">
<path fill-rule="evenodd" clip-rule="evenodd" d="M14.6668 8.49992C14.6668 12.1818 11.6821 15.1666 8.00016 15.1666C4.31826 15.1666 1.3335 12.1818 1.3335 8.49992C1.3335 4.81802 4.31826 1.83325 8.00016 1.83325C11.6821 1.83325 14.6668 4.81802 14.6668 8.49992ZM2.66667 8.49988C2.66667 11.4454 5.05448 13.8332 8 13.8332C10.9455 13.8332 13.3333 11.4454 13.3333 8.49988C13.3333 5.55436 10.9455 3.16654 8 3.16654C5.05448 3.16654 2.66667 5.55436 2.66667 8.49988Z" fill="#B2B5B2"/>
<path fill-rule="evenodd" clip-rule="evenodd" d="M8.6665 7.83341H10.6665C11.0347 7.83341 11.3332 8.13189 11.3332 8.50008C11.3332 8.86827 11.0347 9.16675 10.6665 9.16675H8.6665V11.1667C8.6665 11.5349 8.36803 11.8334 7.99984 11.8334C7.63165 11.8334 7.33317 11.5349 7.33317 11.1667V9.16675H5.33317C4.96498 9.16675 4.6665 8.86827 4.6665 8.50008C4.6665 8.13189 4.96498 7.83341 5.33317 7.83341H7.33317V5.83341C7.33317 5.46522 7.63165 5.16675 7.99984 5.16675C8.36803 5.16675 8.6665 5.46522 8.6665 5.83341V7.83341Z" fill="#B2B5B2"/>
</svg>
