<svg width="16" height="17" viewBox="0 0 16 17" fill="none" xmlns="http://www.w3.org/2000/svg">
    <path fill-rule="evenodd" clip-rule="evenodd" d="M14.6668 8.50004C14.6668 12.1819 11.6821 15.1667 8.00016 15.1667C4.31826 15.1667 1.3335 12.1819 1.3335 8.50004C1.3335 4.81814 4.31826 1.83337 8.00016 1.83337C11.6821 1.83337 14.6668 4.81814 14.6668 8.50004ZM2.66667 8.5C2.66667 11.4455 5.05448 13.8333 8 13.8333C10.9455 13.8333 13.3333 11.4455 13.3333 8.5C13.3333 5.55448 10.9455 3.16667 8 3.16667C5.05448 3.16667 2.66667 5.55448 2.66667 8.5Z" fill="#B2B5B2"/>
    <path fill-rule="evenodd" clip-rule="evenodd" d="M8.6665 7.83329H10.6665C11.0347 7.83329 11.3332 8.13177 11.3332 8.49996C11.3332 8.86815 11.0347 9.16663 10.6665 9.16663H8.6665V11.1666C8.6665 11.5348 8.36803 11.8333 7.99984 11.8333C7.63165 11.8333 7.33317 11.5348 7.33317 11.1666V9.16663H5.33317C4.96498 9.16663 4.6665 8.86815 4.6665 8.49996C4.6665 8.13177 4.96498 7.83329 5.33317 7.83329H7.33317V5.83329C7.33317 5.4651 7.63165 5.16663 7.99984 5.16663C8.36803 5.16663 8.6665 5.4651 8.6665 5.83329V7.83329Z" fill="#B2B5B2"/>
</svg>
