<svg width="11" height="13" viewBox="0 0 11 13" fill="none" xmlns="http://www.w3.org/2000/svg">
<path fill-rule="evenodd" clip-rule="evenodd" d="M8.79066 6.19787L6.50066 3.90787V11.4949C6.50066 12.0449 6.05066 12.4949 5.50066 12.4949C4.94966 12.4949 4.50066 12.0449 4.50066 11.4949V3.90787L2.20966 6.19787C1.82066 6.58687 1.18466 6.58687 0.795656 6.19787C0.406656 5.80887 0.406656 5.17287 0.795656 4.78387L4.79366 0.786873C4.85166 0.726872 4.92566 0.694874 4.99366 0.653873C5.03566 0.628874 5.06966 0.592874 5.11566 0.572873C5.15666 0.554873 5.20266 0.554873 5.24566 0.544873C5.45766 0.487873 5.68166 0.488873 5.88566 0.572873C5.92966 0.591873 5.96266 0.626873 6.00366 0.651873C6.07366 0.692873 6.14666 0.725873 6.20766 0.786873L10.2047 4.78387C10.5937 5.17287 10.5937 5.80887 10.2047 6.19787C9.81566 6.58787 9.17966 6.58787 8.79066 6.19787Z" fill="white"/>
</svg>
