<svg width="18" height="10" viewBox="0 0 18 10" xmlns="http://www.w3.org/2000/svg">
    <path fill-rule="evenodd" clip-rule="evenodd" d="M10.0651 9.58417C9.77258 9.86274 9.38708 10.0013 9.00008 9.99992C8.61458 10.0013 8.22908 9.86274 7.93658 9.58417C7.93058 9.57846 7.87208 9.51846 7.86608 9.51274L0.439578 2.43703C-0.143922 1.88132 -0.143922 0.972744 0.439578 0.41703C1.02308 -0.138684 1.97708 -0.138684 2.56058 0.41703L9.00008 6.55132L15.4411 0.41703C16.0246 -0.138684 16.9786 -0.138684 17.5621 0.41703C18.1456 0.972744 18.1456 1.88132 17.5621 2.43703L10.1461 9.49846C10.1401 9.50417 10.0711 9.57846 10.0651 9.58417Z" />
</svg>
