<svg width="29" height="24" viewBox="0 0 29 24" fill="none" xmlns="http://www.w3.org/2000/svg">
    <path d="M27.8512 4.45512C27.3722 4.2635 26.8931 4.50303 26.7015 4.98207L25.5518 8.09587C23.9231 3.35332 19.3721 0 14.2464 0C9.16847 0.0479045 4.61754 3.25751 2.94088 8.04796C2.74926 8.52701 3.03669 9.10186 3.51573 9.29348C3.99478 9.4851 4.56963 9.19767 4.76125 8.71863C6.19839 4.69464 9.98285 2.01199 14.2464 2.01199C18.5578 2.01199 22.3422 4.79045 23.7314 8.71863L20.953 7.71263C20.4739 7.52101 19.9949 7.76054 19.8033 8.23958C19.7075 8.4791 19.7554 8.71863 19.8512 8.91024C19.947 9.10186 20.1386 9.29348 20.3302 9.38929L25.3602 11.2576C25.5997 11.3534 25.8392 11.3055 26.0309 11.2097C26.2225 11.1139 26.4141 10.9222 26.5099 10.7306L28.3782 5.60483C28.5219 5.12579 28.2824 4.64674 27.8512 4.45512Z" fill="#B2B5B2"/>
    <path d="M25.1681 13.8442C24.6412 13.7005 24.1142 14.0358 24.0184 14.5149C22.8687 18.97 18.8447 22.0359 14.2938 22.0359C9.69496 22.0359 5.62307 18.8263 4.52127 14.4191L7.49135 15.5209C7.9704 15.7125 8.44944 15.473 8.64106 14.9939C8.73687 14.7544 8.68896 14.5149 8.59315 14.3233C8.49735 14.1316 8.30573 13.94 8.11411 13.8442L3.08413 11.9759C2.84461 11.8801 2.60509 11.928 2.41347 12.0238C2.22185 12.1196 2.03023 12.3113 1.93443 12.5029L0.0661487 17.5329C-0.125469 18.0119 0.114053 18.4909 0.593099 18.6826C1.07214 18.8742 1.55119 18.6347 1.74281 18.1556L2.79671 15.3292C4.28175 20.3592 8.97639 24 14.2938 24C19.7549 24 24.5454 20.3113 25.8867 15.0418C25.9825 14.5149 25.6472 13.9879 25.1681 13.8442Z" fill="#B2B5B2"/>
</svg>
