<svg width="13" height="12" viewBox="0 0 13 12" fill="none" xmlns="http://www.w3.org/2000/svg">
<path fill-rule="evenodd" clip-rule="evenodd" d="M7.22344 4.8H10.8234C11.4862 4.8 12.0234 5.33726 12.0234 6C12.0234 6.66274 11.4862 7.2 10.8234 7.2H7.22344V10.8C7.22344 11.4627 6.68618 12 6.02344 12C5.3607 12 4.82344 11.4627 4.82344 10.8V7.2H1.22344C0.560696 7.2 0.0234375 6.66274 0.0234375 6C0.0234375 5.33726 0.560696 4.8 1.22344 4.8H4.82344V1.2C4.82344 0.537258 5.3607 0 6.02344 0C6.68618 0 7.22344 0.537258 7.22344 1.2V4.8Z" fill="white"/>
</svg>
